<?xml version="1.0" standalone="no"?>
<!DOCTYPE svg PUBLIC "-//W3C//DTD SVG 20010904//EN"
 "http://www.w3.org/TR/2001/REC-SVG-20010904/DTD/svg10.dtd">
<svg version="1.0" xmlns="http://www.w3.org/2000/svg"
 width="569.000000pt" height="569.000000pt" viewBox="0 0 569.000000 569.000000"
 preserveAspectRatio="xMidYMid meet">
<metadata>
Created by potrace 1.14, written by Peter Selinger 2001-2017
</metadata>
<g transform="translate(0.000000,569.000000) scale(0.100000,-0.100000)"
fill="#000000" stroke="none">
<path d="M2795 5503 c-361 -29 -573 -67 -814 -145 -872 -282 -1540 -962 -1786
-1817 -236 -823 -55 -1702 492 -2381 95 -118 279 -300 403 -399 437 -347 918
-541 1505 -606 264 -30 512 -16 815 45 854 171 1563 708 1935 1465 126 257
203 502 246 786 31 205 31 533 0 738 -43 284 -120 529 -246 786 -387 787
-1151 1344 -2036 1484 -183 29 -435 51 -514 44z m155 -183 c0 -18 7 -20 65
-20 58 0 65 -2 65 -20 0 -18 -7 -20 -70 -20 -63 0 -70 -2 -70 -20 0 -18 7 -20
86 -20 l86 0 -7 -40 -7 -40 41 0 c23 0 41 5 41 10 0 6 15 10 34 10 19 0 37 6
39 13 3 6 6 -2 6 -20 1 -28 4 -32 34 -35 27 -3 32 -7 35 -33 2 -16 13 -38 24
-49 12 -11 18 -26 15 -38 -7 -24 22 -88 39 -88 15 0 24 -23 24 -62 0 -28 -2
-30 -27 -23 -33 8 -103 20 -225 37 -49 7 -88 15 -88 19 0 4 -37 5 -82 4 -71
-3 -76 -2 -35 5 63 11 71 20 19 20 l-42 0 0 40 c0 22 -4 40 -10 40 -5 0 -10
18 -10 40 0 38 -2 40 -30 40 -23 0 -30 4 -30 20 0 13 -7 20 -18 20 -24 0 -62
33 -62 54 0 9 -4 16 -10 16 -5 0 -10 9 -10 20 0 11 5 20 10 20 6 0 10 9 10 20
0 13 -7 20 -20 20 -13 0 -20 -7 -20 -20 0 -11 -4 -20 -10 -20 -5 0 -10 9 -10
20 0 11 -4 20 -10 20 -11 0 -13 39 -4 64 5 13 25 16 120 16 107 0 114 -1 114
-20z m-350 0 c0 -5 -7 -10 -16 -10 -8 0 -12 5 -9 10 3 6 10 10 16 10 5 0 9 -4
9 -10z m1386 -198 c168 -67 331 -162 523 -306 418 -311 739 -788 880 -1306
123 -455 119 -987 -11 -1440 -60 -209 -183 -483 -293 -650 -359 -548 -918
-932 -1570 -1078 -224 -51 -367 -66 -635 -66 -256 -1 -309 3 -495 30 -566 85
-1109 360 -1475 749 -91 96 -112 121 -183 215 -237 315 -381 649 -458 1060
-44 241 -46 669 -3 900 34 185 45 230 56 224 7 -4 8 -2 4 4 -9 15 4 63 15 56
5 -3 9 2 9 10 0 9 -5 16 -11 16 -8 0 -8 4 -2 13 5 6 10 23 11 36 0 13 6 28 13
32 7 4 9 14 6 23 -4 9 -1 16 6 16 7 0 19 5 27 10 13 8 12 11 -5 24 -19 15 -19
15 -1 16 14 0 17 5 13 22 -9 32 96 274 113 263 6 -3 7 1 4 10 -4 10 -2 15 7
13 7 -2 14 6 16 17 3 16 2 17 -6 5 -6 -8 -11 -11 -11 -7 0 5 9 20 19 33 13 16
21 20 24 12 3 -10 9 -11 26 0 11 6 34 12 51 12 23 0 30 4 30 20 0 17 7 20 40
20 22 0 40 4 40 8 0 10 90 32 131 32 22 0 29 5 29 20 0 13 7 20 20 20 13 0 20
7 20 20 0 14 6 20 17 18 14 -2 17 4 14 35 -2 32 0 37 18 37 14 0 21 6 21 20 0
11 5 20 10 20 6 0 10 9 10 20 0 11 5 20 10 20 6 0 10 9 10 20 0 13 7 20 20 20
13 0 20 7 20 20 0 13 7 20 20 20 13 0 20 7 20 20 0 13 7 20 20 20 13 0 20 7
20 20 0 13 7 20 20 20 13 0 20 -7 20 -20 0 -11 5 -20 10 -20 6 0 10 18 10 40
0 22 5 40 10 40 6 0 10 6 10 14 0 7 9 16 20 19 12 3 20 14 20 26 0 14 6 21 20
21 11 0 20 7 20 15 0 8 7 15 16 15 9 0 18 9 21 20 3 11 12 20 19 20 8 0 14 5
14 10 0 6 11 10 25 10 14 0 25 5 25 10 0 6 7 10 15 10 8 0 15 5 15 10 0 6 9
10 20 10 11 0 20 -4 20 -10 0 -5 18 -10 40 -10 22 0 40 5 40 10 0 6 27 10 60
10 33 0 60 4 60 10 0 6 9 10 20 10 11 0 20 5 20 10 0 6 32 10 75 10 43 0 75 4
75 10 0 6 9 10 20 10 11 0 20 -4 20 -10 0 -5 18 -10 40 -10 22 0 40 -4 40 -10
0 -5 9 -10 20 -10 13 0 22 -9 26 -25 5 -21 11 -24 28 -19 14 4 18 3 11 -4 -14
-13 -76 -33 -85 -27 -4 3 -10 -2 -14 -10 -3 -8 -12 -15 -19 -15 -16 0 -212
-97 -272 -134 -22 -14 -56 -35 -75 -46 -139 -81 -346 -266 -477 -425 -76 -94
-174 -250 -238 -380 -55 -114 -125 -300 -139 -375 -3 -14 -14 -63 -25 -110
-57 -245 -56 -648 4 -915 75 -335 200 -596 412 -860 123 -154 290 -303 471
-419 75 -49 302 -163 382 -191 258 -94 514 -138 800 -138 399 -1 701 70 1025
241 95 50 96 50 205 126 452 312 757 821 837 1394 20 145 22 458 4 597 -54
419 -225 804 -491 1102 -188 212 -391 363 -661 492 -124 60 -126 61 -121 91 2
16 8 30 13 30 4 0 15 26 25 58 27 93 31 100 63 107 17 4 31 11 31 16 0 6 4 15
10 22 61 75 94 130 83 140 -8 9 42 -7 103 -31z m-2110 -226 c19 -20 18 -26 -6
-26 -13 0 -20 7 -20 20 0 24 6 25 26 6z m1038 4 c-6 -6 -21 -6 -39 -1 -30 9
-30 9 10 10 25 1 36 -2 29 -9z m291 -384 c173 -38 173 -37 265 -73 143 -54
347 -170 449 -254 19 -15 39 -25 44 -22 6 3 7 1 3 -5 -4 -7 -2 -12 3 -12 6 0
21 -11 33 -25 12 -14 27 -25 34 -25 6 0 14 -7 18 -15 3 -8 20 -24 38 -36 18
-12 24 -18 14 -15 -15 5 -12 0 10 -22 16 -16 32 -27 37 -25 4 3 6 0 5 -5 -2
-5 20 -38 48 -73 69 -88 142 -201 171 -268 13 -31 37 -83 52 -116 59 -128 74
-176 61 -188 -10 -9 -12 -9 -8 4 3 8 -1 26 -9 40 -8 13 -12 16 -9 7 3 -10 1
-20 -5 -23 -5 -4 -9 -3 -8 2 1 4 1 17 0 28 -1 16 -3 17 -11 5 -7 -12 -11 -10
-18 10 -5 14 -12 39 -16 55 -6 28 -4 27 15 -8 11 -22 23 -37 25 -34 3 3 -17
53 -45 111 -28 57 -51 110 -51 115 0 6 -3 11 -7 11 -5 0 -19 10 -33 21 -14 11
-19 18 -12 14 20 -10 14 8 -13 38 -32 34 -33 34 -28 0 l5 -28 -21 25 c-11 14
-21 29 -21 34 0 6 -5 5 -12 -2 -8 -8 -8 -15 2 -29 12 -15 12 -16 0 -5 -16 14
-34 16 -26 3 8 -13 -19 -73 -28 -64 -5 5 -5 -2 -2 -14 4 -13 3 -23 -2 -23 -11
0 -34 49 -28 59 3 4 0 13 -5 21 -8 11 -9 5 -5 -23 2 -20 14 -49 25 -64 12 -14
21 -36 21 -49 0 -13 4 -24 10 -24 5 0 13 -15 18 -32 4 -18 12 -31 17 -30 9 4
25 -17 25 -35 0 -8 -7 -10 -17 -6 -14 5 -13 1 6 -25 12 -18 26 -32 30 -32 4 0
14 -18 21 -39 12 -38 35 -55 70 -52 8 1 2 -6 -13 -14 -30 -17 -27 -40 4 -30
11 4 19 2 19 -5 0 -16 -31 -25 -39 -11 -5 7 -18 10 -33 6 -23 -6 -26 -3 -32
29 -7 34 -14 41 -43 37 -8 -1 -13 10 -13 30 0 18 -3 29 -7 26 -3 -4 -17 8 -30
25 -12 18 -23 27 -23 20 0 -7 -7 -5 -18 6 -34 31 -62 52 -71 52 -5 0 -12 7
-15 16 -4 9 -11 12 -18 7 -24 -14 -48 -13 -48 2 0 8 -8 31 -18 50 -15 27 -22
32 -32 22 -10 -9 -14 -9 -17 1 -7 18 -23 15 -23 -4 0 -12 -7 -15 -25 -12 -21
5 -23 3 -14 -14 6 -11 17 -17 24 -14 9 3 12 0 9 -9 -3 -7 -13 -13 -22 -13 -9
0 -25 -3 -36 -7 -16 -7 -17 -6 -7 13 9 18 8 25 -9 42 -11 11 -20 27 -20 35 0
17 -16 20 -25 5 -7 -11 -35 -2 -35 12 0 5 5 6 10 3 6 -3 10 0 10 8 0 8 -18 26
-40 41 -22 14 -40 33 -40 41 0 8 -7 15 -15 15 -8 0 -15 5 -15 11 0 6 -6 9 -14
6 -22 -9 -86 40 -86 66 0 34 -11 67 -20 62 -5 -3 -15 3 -22 14 -20 29 -63 6
-63 -33 1 -23 -2 -26 -21 -22 -13 4 -24 1 -27 -8 -7 -18 -79 -29 -88 -14 -6 9
-12 8 -23 -1 -14 -11 -16 -11 -16 3 0 13 -5 16 -22 10 -20 -6 -21 -5 -10 8 10
13 9 16 -7 21 -14 3 -22 -1 -27 -15 -5 -18 -7 -18 -18 -3 -11 15 -13 15 -25 1
-14 -17 -6 -56 13 -56 6 0 18 6 25 13 10 10 12 6 9 -18 -3 -28 -6 -30 -47 -31
-36 0 -45 -4 -47 -20 -5 -42 -14 -68 -26 -75 -10 -6 -10 -11 -1 -20 10 -10 8
-16 -9 -31 -12 -10 -25 -18 -30 -18 -4 0 -8 -4 -8 -10 0 -5 6 -7 14 -4 7 3 16
-2 19 -10 4 -9 1 -16 -5 -16 -7 0 -3 -6 7 -14 11 -8 16 -19 12 -30 -4 -10 -2
-26 4 -37 16 -30 19 -59 7 -59 -6 0 -5 -7 3 -17 12 -14 12 -17 0 -21 -10 -3
-10 -6 -1 -12 9 -6 8 -11 -3 -21 -13 -12 -13 -16 1 -32 8 -9 12 -20 8 -24 -4
-4 -11 -1 -15 6 -6 10 -10 10 -16 2 -4 -7 -1 -18 5 -26 17 -21 3 -38 -21 -25
-28 16 -24 -6 6 -35 18 -16 22 -25 13 -28 -10 -4 -10 -7 1 -15 10 -7 6 -9 -13
-9 -16 0 -28 6 -31 18 -4 11 -10 19 -15 19 -5 0 -17 3 -27 6 -14 6 -16 4 -6
-6 6 -7 9 -19 6 -26 -3 -9 2 -14 12 -14 15 0 13 -5 -9 -25 -25 -23 -29 -24
-43 -10 -8 9 -18 13 -21 10 -4 -3 -2 -9 3 -13 6 -4 11 -17 12 -29 2 -17 -2
-23 -17 -23 -11 0 -20 -7 -20 -15 0 -18 -12 -19 -28 -3 -14 14 -42 20 -42 8 0
-5 5 -10 12 -12 6 -2 8 -10 4 -16 -9 -14 -56 -8 -66 9 -6 8 -9 8 -15 -1 -4 -7
1 -13 13 -17 11 -3 23 -12 26 -20 5 -11 2 -13 -10 -9 -8 3 -19 6 -24 6 -4 0
-10 10 -13 21 -6 23 -8 23 -92 -1 -22 -6 -46 -12 -52 -12 -15 -2 -17 -14 -3
-23 18 -11 30 -77 18 -93 -22 -26 -17 -41 15 -48 l32 -7 -25 -9 c-24 -10 -24
-11 -5 -18 l20 -9 -20 -1 c-11 -2 -25 -2 -31 -1 -18 2 -12 -28 8 -35 24 -7 12
-27 -13 -21 -11 3 -17 1 -14 -3 3 -5 1 -11 -5 -15 -5 -3 -10 1 -10 9 0 17 -25
22 -35 7 -3 -5 -19 -12 -35 -16 -25 -5 -30 -12 -30 -35 0 -19 -7 -33 -20 -40
-11 -6 -20 -8 -20 -5 0 4 -7 0 -15 -9 -17 -16 -21 -51 -5 -41 6 3 10 2 10 -4
0 -5 -4 -12 -10 -16 -5 -3 -6 -13 -3 -22 4 -11 2 -14 -8 -11 -8 3 -15 13 -15
24 -1 10 -2 25 -3 32 -1 6 -6 12 -12 12 -5 0 -9 -8 -7 -18 2 -11 -3 -27 -11
-36 -8 -9 -10 -16 -5 -14 5 1 19 -3 31 -10 15 -8 20 -18 15 -34 -4 -16 -2 -20
10 -15 9 3 23 0 31 -6 15 -13 40 -77 33 -85 -7 -6 -76 38 -76 49 0 5 -11 9
-25 9 -18 0 -23 -4 -19 -15 4 -8 1 -15 -5 -15 -19 0 -12 -17 9 -23 11 -3 20
-11 20 -19 0 -8 -3 -9 -8 -3 -4 6 -20 10 -35 10 -19 -1 -26 3 -23 12 3 8 -2
13 -13 13 -23 0 -36 49 -15 57 16 6 19 23 5 23 -18 0 -41 -32 -41 -56 0 -27
-15 -32 -24 -7 -5 12 -10 13 -18 5 -6 -6 -16 -8 -23 -5 -7 2 -16 -5 -20 -16
-3 -12 -10 -21 -15 -21 -15 0 -20 31 -9 53 9 16 9 22 0 25 -6 2 -11 9 -11 17
0 40 -70 39 -89 -2 -12 -26 -21 -26 -25 -1 -1 8 -15 27 -30 44 l-29 29 17 -27
c9 -16 13 -28 10 -28 -4 0 1 -9 11 -20 13 -15 15 -24 8 -31 -14 -14 -33 -3
-33 19 -1 17 -22 52 -33 52 -2 0 -8 -11 -11 -25 -4 -14 -10 -25 -15 -25 -4 0
-7 -11 -6 -25 3 -27 -18 -51 -35 -40 -7 4 -10 15 -7 25 6 22 -11 52 -24 44 -5
-3 -25 3 -44 15 -22 13 -32 15 -29 6 3 -7 15 -15 26 -18 11 -3 17 -10 14 -16
-11 -17 14 -52 45 -63 16 -5 29 -14 29 -19 0 -12 -1 -12 -44 6 -20 8 -35 12
-34 8 2 -5 -1 -9 -7 -10 -5 -1 -9 12 -8 30 1 18 -1 24 -3 15 -8 -27 -22 -21
-26 10 -2 15 -8 26 -15 24 -7 -1 -13 5 -13 14 0 8 5 12 10 9 6 -3 10 -1 10 4
0 10 -21 16 -42 12 -5 0 -8 3 -8 9 0 9 15 14 33 11 5 -1 7 4 5 11 -3 7 -17 13
-32 13 -16 0 -32 8 -38 19 -6 10 -7 16 -2 13 5 -3 23 0 39 7 l30 13 -40 19
c-34 16 -37 19 -18 22 22 3 22 4 7 33 -14 28 -69 62 -102 62 -7 0 -11 5 -9 11
3 6 -2 19 -11 29 -13 15 -13 17 0 17 8 0 15 6 15 13 0 6 4 21 9 31 5 14 4 17
-4 12 -7 -4 -12 -14 -12 -22 0 -17 -12 -18 -28 -2 -17 17 -15 33 3 18 12 -10
15 -10 15 3 0 9 -5 19 -10 22 -16 10 0 27 21 22 11 -3 17 -2 15 1 -2 4 0 16 5
27 l8 20 1 -20 c2 -11 2 -24 1 -28 -1 -5 3 -6 8 -2 6 3 7 13 4 22 -4 10 -2 14
4 10 6 -4 13 -16 16 -27 3 -13 1 -18 -6 -13 -7 4 -8 0 -4 -11 4 -10 7 -22 7
-27 0 -5 10 -9 22 -9 21 0 21 0 3 14 -16 11 -17 17 -7 29 11 13 8 20 -15 41
-33 31 -39 32 -52 9 -9 -14 -12 -15 -19 -5 -7 11 -12 11 -25 -2 -9 -9 -17 -12
-19 -5 -2 5 -12 11 -23 13 -13 2 -20 11 -19 25 0 11 -3 21 -8 21 -4 0 -8 -7
-8 -16 0 -13 -3 -14 -13 -5 -8 6 -17 8 -21 4 -13 -13 -25 20 -14 40 7 13 6 28
-2 48 -15 35 -23 36 -50 7 -16 -17 -23 -19 -32 -10 -9 9 -8 12 5 12 9 0 17 4
17 9 0 5 -9 7 -20 4 -22 -6 -43 -36 -33 -46 3 -4 2 -12 -3 -19 -5 -7 -9 -27
-9 -45 0 -17 -3 -29 -7 -27 -4 3 -8 -4 -8 -15 0 -11 -4 -22 -9 -25 -5 -4 -16
-27 -25 -53 -12 -34 -13 -50 -5 -59 6 -8 14 -12 18 -10 6 4 7 -3 11 -87 1 -26
6 -50 11 -53 9 -5 34 -84 31 -96 -1 -5 2 -8 7 -8 5 0 11 -10 15 -22 5 -19 8
-21 16 -8 8 13 10 12 10 -2 0 -10 -5 -18 -12 -18 -6 0 -3 -10 8 -22 12 -13 13
-18 4 -13 -11 6 -10 3 2 -12 24 -26 23 -36 -1 -23 -18 9 -19 8 -11 -21 5 -17
16 -42 25 -55 8 -13 15 -32 15 -44 0 -11 6 -20 14 -20 8 0 19 -12 25 -27 21
-49 43 -87 86 -143 23 -30 45 -66 50 -80 8 -28 72 -90 93 -90 9 0 11 7 7 23
-9 29 -9 29 -1 50 9 20 22 23 24 5 1 -7 5 -29 10 -48 8 -28 10 -30 11 -11 1
33 15 17 17 -19 1 -20 -2 -27 -12 -23 -18 7 -18 -11 0 -26 8 -7 18 -26 21 -42
4 -16 11 -32 17 -35 6 -4 8 1 4 13 -4 14 -2 20 9 20 8 0 15 -5 16 -11 1 -6 4
0 8 14 8 27 -11 56 -29 45 -6 -3 -7 1 -4 9 3 9 17 16 29 16 13 0 30 3 39 6 21
8 13 -36 -9 -48 -21 -12 -19 -25 5 -33 11 -3 20 -11 20 -17 0 -5 -7 -8 -14 -5
-10 4 -13 1 -9 -9 3 -7 12 -14 20 -14 11 0 14 8 11 30 -3 19 0 31 10 35 17 6
34 -3 27 -15 -3 -4 4 -6 15 -3 11 3 17 10 13 16 -4 7 0 8 13 3 10 -4 26 -9 34
-10 8 -2 20 -17 27 -35 13 -31 13 -31 -7 -21 -16 9 -18 8 -14 -5 4 -9 -1 -17
-11 -21 -9 -4 -14 -13 -10 -22 3 -8 1 -20 -4 -26 -16 -19 -3 -50 29 -71 26
-17 28 -22 15 -34 -13 -13 -17 -12 -34 3 -11 10 -26 16 -33 14 -8 -3 -1 -11
17 -21 17 -8 44 -29 60 -45 22 -21 35 -27 50 -22 23 8 55 2 55 -11 0 -18 3
-25 22 -52 21 -30 18 -48 -6 -28 -11 9 -15 8 -20 -5 -5 -13 -10 -14 -18 -6
-12 12 -41 4 -32 -9 3 -5 10 -7 15 -4 5 4 9 -1 9 -10 0 -8 -7 -18 -15 -21 -23
-9 -18 -22 16 -40 22 -11 28 -18 20 -24 -8 -4 -2 -11 19 -20 17 -7 29 -15 27
-17 -5 -4 -59 18 -67 27 -3 3 -23 14 -45 25 -187 86 -486 367 -623 585 -81
128 -176 362 -217 534 -107 443 -12 983 238 1351 91 135 214 277 305 355 22
19 38 38 35 44 -3 5 -2 6 4 3 11 -7 119 71 116 84 -2 5 0 8 5 7 15 -3 61 22
70 39 6 10 13 17 16 16 15 -7 26 -2 20 9 -4 7 -3 8 5 4 6 -4 23 1 39 12 15 10
57 33 95 51 37 18 65 36 62 41 -3 4 1 8 8 7 39 -1 68 5 79 16 7 8 21 12 32 9
14 -4 17 -2 11 8 -6 10 -2 12 18 8 16 -3 24 -1 20 5 -4 6 2 8 16 4 12 -3 27 1
35 9 8 7 23 11 35 9 12 -2 21 -1 21 3 0 4 10 7 23 7 13 -1 68 7 122 17 151 27
455 19 620 -16z m-2617 -431 c-3 -3 -9 2 -12 12 -6 14 -5 15 5 6 7 -7 10 -15
7 -18z m2912 -271 c0 -8 -5 -12 -10 -9 -6 4 -8 11 -5 16 9 14 15 11 15 -7z
m-80 -24 c8 -5 11 -13 6 -17 -5 -4 -11 -2 -13 5 -3 6 -9 10 -14 6 -5 -3 -9 0
-9 5 0 13 10 14 30 1z m-310 -191 c0 -14 -17 -10 -23 5 -4 10 -1 13 9 9 7 -3
14 -9 14 -14z m670 -84 c0 -8 -4 -15 -10 -15 -5 0 -10 7 -10 15 0 8 5 15 10
15 6 0 10 -7 10 -15z m42 -57 c-8 -8 -9 -4 -5 13 4 13 8 18 11 10 2 -7 -1 -18
-6 -23z m-21 -15 c12 -16 12 -17 -2 -6 -9 7 -19 10 -22 6 -4 -3 -7 -1 -7 5 0
17 16 15 31 -5z m319 -83 c0 -5 -2 -10 -4 -10 -3 0 -8 5 -11 10 -3 6 -1 10 4
10 6 0 11 -4 11 -10z m397 -92 c-3 -8 -6 -5 -6 6 -1 11 2 17 5 13 3 -3 4 -12
1 -19z m-59 -43 c-3 -3 -9 2 -12 12 -6 14 -5 15 5 6 7 -7 10 -15 7 -18z m69
-12 c-3 -10 -5 -4 -5 12 0 17 2 24 5 18 2 -7 2 -21 0 -30z m-227 17 c0 -5 -8
-10 -17 -10 -15 0 -16 2 -3 10 19 12 20 12 20 0z m80 -15 c0 -8 -7 -15 -16
-15 -14 0 -14 3 -4 15 7 8 14 15 16 15 2 0 4 -7 4 -15z m-1280 1 c0 -11 -19
-15 -25 -6 -3 5 1 10 9 10 9 0 16 -2 16 -4z m359 -17 c12 -13 17 -28 13 -38
-6 -14 -7 -14 -10 1 -3 15 -7 15 -23 5 -17 -10 -23 -8 -39 13 -19 25 -19 25 3
32 34 10 35 9 56 -13z m1001 -10 c0 -6 -4 -7 -10 -4 -5 3 -10 11 -10 16 0 6 5
7 10 4 6 -3 10 -11 10 -16z m-1193 -81 c9 -8 9 -14 0 -29 -23 -36 -72 -18 -62
23 5 20 11 25 28 20 12 -3 27 -9 34 -14z m203 -18 c0 -5 -5 -10 -11 -10 -5 0
-7 5 -4 10 3 6 8 10 11 10 2 0 4 -4 4 -10z m-15 -70 c3 -5 1 -10 -4 -10 -6 0
-11 5 -11 10 0 6 2 10 4 10 3 0 8 -4 11 -10z m-58 -119 c0 -19 -5 -27 -13 -24
-15 5 -26 43 -12 43 5 0 6 4 3 10 -3 5 0 7 8 4 7 -2 14 -18 14 -33z m78 -19
c-8 -8 -25 10 -25 26 0 13 2 13 14 -4 8 -10 13 -21 11 -22z m-2060 8 c3 -6 -1
-7 -9 -4 -18 7 -21 14 -7 14 6 0 13 -4 16 -10z m1225 6 c0 -3 -4 -8 -10 -11
-5 -3 -10 -1 -10 4 0 6 5 11 10 11 6 0 10 -2 10 -4z m-1230 -41 c0 -8 -4 -15
-9 -15 -13 0 -22 16 -14 24 11 11 23 6 23 -9z m47 -7 c-3 -8 -6 -5 -6 6 -1 11
2 17 5 13 3 -3 4 -12 1 -19z m1546 5 c-4 -10 -2 -14 4 -10 6 4 16 0 23 -8 7
-8 17 -12 24 -8 6 3 8 3 4 -2 -4 -4 -3 -16 3 -26 7 -14 5 -26 -7 -45 -14 -20
-15 -27 -5 -34 10 -5 10 -9 2 -11 -8 -3 -4 -13 10 -28 l22 -23 -22 -21 c-14
-14 -20 -16 -16 -6 4 12 -2 15 -29 15 -41 0 -49 5 -40 27 7 19 34 11 34 -10 0
-8 5 -11 10 -8 15 9 12 41 -5 55 -12 10 -18 10 -32 -1 -16 -12 -17 -12 -7 1
21 27 20 54 -2 73 -12 9 -27 17 -33 17 -16 0 -14 8 10 41 22 32 63 41 52 12z
m468 4 c-1 -12 -15 -9 -19 4 -3 6 1 10 8 8 6 -3 11 -8 11 -12z m-41 -33 c0 -8
-4 -14 -9 -14 -12 0 -32 26 -25 33 10 9 34 -4 34 -19z m1120 -51 c0 -50 -13
-83 -27 -70 -4 5 -1 12 6 16 10 7 10 13 2 29 -14 26 -14 65 -1 57 6 -3 10 -1
10 4 0 6 2 11 5 11 3 0 5 -21 5 -47z m-1170 27 c0 7 6 10 13 7 6 -2 12 -17 12
-32 0 -16 6 -30 14 -33 10 -3 12 0 8 11 -4 11 -2 14 8 11 8 -3 11 -12 8 -20
-3 -7 2 -16 10 -20 9 -3 13 -12 10 -20 -3 -8 0 -14 6 -14 15 0 -8 -51 -31 -68
-9 -7 -15 -19 -12 -27 4 -8 1 -15 -6 -15 -6 0 -8 -5 -4 -11 3 -6 -6 -3 -22 7
-18 13 -29 15 -31 7 -2 -6 -16 -10 -31 -7 -16 3 -22 1 -15 -4 25 -16 16 -112
-11 -112 -20 0 -7 50 13 51 9 0 11 3 4 5 -7 3 -9 12 -6 20 3 8 0 14 -6 14 -6
0 -11 10 -11 23 0 12 -4 18 -8 12 -4 -5 -14 -10 -22 -10 -8 0 -16 -6 -16 -12
-1 -7 -2 -19 -3 -25 0 -7 -8 -2 -17 10 -8 12 -20 19 -26 16 -7 -5 -4 -12 8
-21 15 -11 16 -15 5 -22 -9 -6 -10 -11 -2 -15 21 -14 0 -26 -22 -14 -12 7 -26
12 -32 13 -9 0 -10 6 -6 37 0 7 7 3 15 -8 13 -17 14 -16 7 16 -4 19 -13 35
-20 35 -8 0 -17 10 -22 23 -10 25 -1 29 15 7 10 -14 13 -13 28 5 15 17 15 20
3 20 -8 0 -15 7 -15 16 0 11 -6 14 -20 9 -15 -5 -21 0 -26 19 -3 14 -10 26
-15 26 -5 0 -9 5 -9 10 0 6 6 10 14 10 8 0 18 9 21 20 8 24 21 25 42 5 8 -8
19 -13 24 -10 5 4 9 1 9 -5 0 -7 8 -9 21 -5 28 9 15 -13 -13 -24 -13 -5 -22
-18 -24 -35 -2 -21 0 -25 10 -17 7 6 16 8 20 4 4 -4 4 0 0 10 -8 22 12 22 25
0 6 -11 11 -13 11 -5 0 7 5 10 12 6 11 -7 9 10 -7 49 -5 12 -2 17 11 17 14 0
15 3 6 12 -7 7 -12 14 -12 18 0 10 55 8 62 -3 5 -9 11 -8 20 2 10 11 10 14 1
18 -7 3 -13 9 -13 14 0 6 8 5 20 -1 14 -8 20 -8 20 0z m-2105 -27 c-22 -15
-28 -12 -19 10 3 9 12 13 21 10 14 -5 13 -8 -2 -20z m2780 17 c3 -5 -1 -10
-10 -10 -9 0 -13 5 -10 10 3 6 8 10 10 10 2 0 7 -4 10 -10z m-935 -7 c-8 -4
-23 -17 -33 -30 -10 -12 -23 -23 -28 -23 -5 0 3 14 18 30 14 17 33 30 42 29
14 0 14 -1 1 -6z m-1887 -18 c-3 -9 -8 -14 -10 -11 -3 3 -2 9 2 15 9 16 15 13
8 -4z m2377 -10 c0 -8 -4 -15 -9 -15 -13 0 -22 16 -14 24 11 11 23 6 23 -9z
m-646 -14 c-5 -3 -16 -15 -24 -25 -13 -18 -13 -19 0 -11 13 8 13 7 1 -8 -15
-19 -36 -24 -25 -6 4 8 0 9 -15 4 -24 -7 -25 -6 -11 30 6 16 16 25 24 22 7 -3
19 -1 26 3 16 10 37 1 24 -9z m-1664 -1 c0 -5 -2 -10 -4 -10 -3 0 -8 5 -11 10
-3 6 -1 10 4 10 6 0 11 -4 11 -10z m-20 -24 c0 -3 -4 -8 -10 -11 -5 -3 -10 -1
-10 4 0 6 5 11 10 11 6 0 10 -2 10 -4z m298 -48 c-2 -6 -10 -14 -16 -16 -7 -2
-10 2 -6 12 7 18 28 22 22 4z m1537 -18 c3 -5 1 -10 -4 -10 -6 0 -11 5 -11 10
0 6 2 10 4 10 3 0 8 -4 11 -10z m-1705 -19 c0 -6 -4 -13 -10 -16 -5 -3 -10 1
-10 9 0 9 5 16 10 16 6 0 10 -4 10 -9z m2135 -41 c3 -5 1 -10 -4 -10 -6 0 -11
5 -11 10 0 6 2 10 4 10 3 0 8 -4 11 -10z m185 -6 c0 -8 -4 -12 -10 -9 -5 3
-10 10 -10 16 0 5 5 9 10 9 6 0 10 -7 10 -16z m-1280 -14 c8 -5 12 -12 9 -15
-8 -8 -39 5 -39 16 0 11 11 11 30 -1z m-1074 -35 c6 -16 -12 -45 -27 -45 -10
0 -12 44 -2 53 11 11 23 8 29 -8z m2374 -9 c0 -3 -4 -8 -10 -11 -5 -3 -10 -1
-10 4 0 6 5 11 10 11 6 0 10 -2 10 -4z m-32 -43 c-5 -7 -7 -17 -4 -22 4 -5 2
-12 -4 -16 -5 -3 -10 -1 -10 4 0 6 -7 11 -16 11 -13 0 -14 3 -4 15 7 8 10 21
7 29 -4 11 -1 11 18 2 17 -8 21 -14 13 -23z m-1278 11 c0 -8 -5 -12 -10 -9 -6
4 -8 11 -5 16 9 14 15 11 15 -7z m803 -39 c-7 -21 -13 -19 -13 6 0 11 4 18 10
14 5 -3 7 -12 3 -20z m192 15 c3 -5 1 -10 -4 -10 -6 0 -11 5 -11 10 0 6 2 10
4 10 3 0 8 -4 11 -10z m-573 -27 c-6 -2 -10 -8 -7 -13 3 -4 -4 -6 -15 -3 -29
8 -24 23 8 22 15 0 21 -3 14 -6z m-814 -24 c-10 -5 -15 -16 -12 -24 4 -10 0
-12 -15 -8 -24 6 -17 31 13 43 26 10 37 2 14 -11z m-221 -11 c-3 -8 -6 -5 -6
6 -1 11 2 17 5 13 3 -3 4 -12 1 -19z m658 -8 c-2 -27 -15 -38 -15 -13 0 16 8
33 15 33 1 0 1 -9 0 -20z m445 -24 c0 -8 3 -21 6 -30 4 -11 1 -16 -10 -16 -9
0 -16 -5 -16 -10 0 -14 -38 11 -45 30 -7 17 20 40 47 40 10 0 18 -6 18 -14z
m462 -25 c3 8 8 11 12 7 11 -9 -13 -50 -25 -43 -5 4 -9 -1 -9 -9 0 -16 -19
-23 -21 -8 0 4 -1 26 -3 49 l-2 42 22 -26 c16 -18 23 -21 26 -12z m-1292 14
c11 -13 8 -15 -18 -15 -50 0 -50 20 -1 29 4 0 12 -6 19 -14z m-180 -13 c0 -5
-7 -9 -15 -9 -8 0 -15 4 -15 9 0 4 7 8 15 8 8 0 15 -4 15 -8z m267 -4 c16 -26
12 -39 -10 -32 -30 9 -41 20 -33 33 10 15 33 14 43 -1z m647 -23 c3 -9 0 -12
-10 -8 -7 3 -14 0 -14 -6 0 -6 8 -11 19 -11 20 0 48 -27 37 -37 -3 -3 -6 -1
-6 6 0 7 -5 9 -10 6 -6 -4 -8 -10 -6 -14 3 -4 1 -13 -5 -21 -5 -8 -9 -10 -9
-5 0 6 -14 12 -32 13 -20 2 -42 14 -61 34 l-30 31 43 17 c47 18 75 16 84 -5z
m161 -5 c3 -5 11 -10 16 -10 6 0 7 5 4 10 -3 6 0 10 8 10 15 0 32 -29 23 -37
-3 -3 -23 -2 -45 2 -29 5 -38 10 -34 21 6 16 19 18 28 4z m-468 -6 c-3 -3 -12
-4 -19 -1 -8 3 -5 6 6 6 11 1 17 -2 13 -5z m-732 -14 c3 -5 1 -10 -4 -10 -6 0
-11 5 -11 10 0 6 2 10 4 10 3 0 8 -4 11 -10z m1850 0 c3 -5 1 -10 -4 -10 -6 0
-11 5 -11 10 0 6 2 10 4 10 3 0 8 -4 11 -10z m-665 -31 c0 -5 -7 -9 -15 -9 -8
0 -15 7 -15 15 0 9 6 12 15 9 8 -4 15 -10 15 -15z m880 6 c0 -8 -4 -15 -10
-15 -5 0 -10 7 -10 15 0 8 5 15 10 15 6 0 10 -7 10 -15z m-1783 -20 c-4 -8 -2
-17 3 -20 13 -8 13 -25 1 -25 -13 0 -21 27 -15 45 4 8 8 15 11 15 3 0 3 -7 0
-15z m493 5 c0 -5 -4 -10 -10 -10 -5 0 -10 5 -10 10 0 6 5 10 10 10 6 0 10 -4
10 -10z m620 0 c0 -5 -2 -10 -4 -10 -3 0 -8 5 -11 10 -3 6 -1 10 4 10 6 0 11
-4 11 -10z m-1030 -15 c0 -8 -4 -15 -10 -15 -5 0 -10 7 -10 15 0 8 5 15 10 15
6 0 10 -7 10 -15z m2303 -50 c-3 -9 -8 -14 -10 -11 -3 3 -2 9 2 15 9 16 15 13
8 -4z m-2883 -16 c0 -5 -4 -9 -10 -9 -5 0 -10 7 -10 16 0 8 5 12 10 9 6 -3 10
-10 10 -16z m585 -19 c3 -5 2 -10 -4 -10 -5 0 -13 5 -16 10 -3 6 -2 10 4 10 5
0 13 -4 16 -10z m48 -5 c-3 -9 -8 -14 -10 -11 -3 3 -2 9 2 15 9 16 15 13 8 -4z
m351 -20 c3 -8 11 -14 17 -13 6 2 14 -3 16 -10 8 -22 -28 -10 -45 16 -8 12
-10 22 -4 22 5 0 12 -7 16 -15z m406 -5 c0 -5 -2 -10 -4 -10 -3 0 -8 5 -11 10
-3 6 -1 10 4 10 6 0 11 -4 11 -10z m-1505 -9 c3 -5 1 -12 -5 -16 -5 -3 -10 1
-10 9 0 18 6 21 15 7z m760 -30 c-3 -14 -7 -38 -7 -53 -1 -16 -7 -28 -14 -28
-9 0 -11 11 -7 35 6 35 5 35 -21 25 -36 -13 -43 -13 -50 5 -9 24 4 48 19 35 9
-8 15 -7 19 2 5 10 7 10 12 1 8 -18 24 -16 24 2 0 9 6 12 16 8 11 -4 14 -13 9
-32z m2191 6 c17 6 17 5 6 -10 -8 -9 -11 -21 -7 -27 3 -5 2 -10 -3 -10 -5 0
-15 -13 -22 -29 -13 -33 -50 -72 -46 -49 1 7 10 28 20 46 10 19 15 36 12 39
-3 3 -10 -7 -16 -22 -6 -15 -19 -39 -30 -53 -17 -21 -20 -22 -17 -6 6 40 68
138 78 123 3 -5 14 -6 25 -2z m-2470 -192 c-2 -7 6 -21 19 -29 16 -11 22 -22
18 -33 -4 -11 -3 -14 5 -9 8 5 12 -2 12 -19 0 -21 -4 -26 -16 -21 -9 3 -20 6
-25 6 -5 0 -9 7 -9 16 0 14 -2 14 -16 3 -14 -11 -19 -10 -34 11 -19 25 -17 51
3 47 7 -1 12 4 11 11 -3 36 -5 42 -11 41 -5 -1 -15 -1 -23 0 -13 1 -13 3 -1
10 20 13 74 -15 67 -34z m464 -15 c0 -5 -5 -10 -11 -10 -5 0 -7 5 -4 10 3 6 8
10 11 10 2 0 4 -4 4 -10z m-533 -49 c10 -15 9 -22 -2 -31 -12 -10 -15 -10 -15
0 0 7 -8 10 -20 7 -24 -6 -26 6 -4 27 20 21 27 20 41 -3z m223 -21 c0 -5 -4
-10 -10 -10 -5 0 -10 5 -10 10 0 6 5 10 10 10 6 0 10 -4 10 -10z m-67 -67 c-3
-7 -11 -13 -18 -13 -16 0 -40 28 -32 37 4 3 13 0 22 -7 12 -10 15 -9 15 6 0
15 2 16 9 5 5 -8 7 -20 4 -28z m-48 -213 c11 -5 14 -9 6 -9 -11 -1 -11 -4 0
-18 12 -14 10 -14 -13 1 -42 28 -37 45 7 26z m118 -196 c-3 -9 -13 -12 -24 -9
-12 4 -19 2 -19 -6 0 -7 -3 -10 -6 -7 -3 3 0 15 7 26 14 22 51 19 42 -4z m142
-154 c3 -5 2 -10 -4 -10 -5 0 -13 5 -16 10 -3 6 -2 10 4 10 5 0 13 -4 16 -10z"/>
<path d="M2888 5183 c12 -2 32 -2 45 0 12 2 2 4 -23 4 -25 0 -35 -2 -22 -4z"/>
<path d="M3330 5020 c0 -5 5 -10 10 -10 6 0 10 5 10 10 0 6 -4 10 -10 10 -5 0
-10 -4 -10 -10z"/>
<path d="M1008 4233 c7 -3 16 -2 19 1 4 3 -2 6 -13 5 -11 0 -14 -3 -6 -6z"/>
<path d="M426 3795 c-3 -8 -1 -15 4 -15 13 0 22 18 11 24 -5 3 -11 -1 -15 -9z"/>
<path d="M357 3597 c-3 -8 -2 -20 3 -26 5 -9 8 -4 8 13 0 29 -3 32 -11 13z"/>
<path d="M3593 3960 c-1 -11 2 -20 8 -20 5 0 9 -5 9 -11 0 -5 -6 -7 -12 -3
-10 6 -10 4 0 -8 8 -10 9 -17 3 -20 -6 -2 -7 -9 -2 -17 7 -11 13 -10 30 6 19
17 20 21 6 26 -8 4 -15 10 -14 14 2 14 -13 53 -20 53 -4 0 -7 -9 -8 -20z"/>
<path d="M3635 3870 c-4 -6 3 -10 14 -10 25 0 27 6 6 13 -8 4 -17 2 -20 -3z"/>
<path d="M4097 3779 c7 -7 15 -10 18 -7 3 3 -2 9 -12 12 -14 6 -15 5 -6 -5z"/>
<path d="M3077 3764 c-14 -14 -7 -25 13 -22 12 2 21 8 21 13 0 12 -24 18 -34
9z"/>
<path d="M4057 3693 c3 -7 6 -13 8 -13 2 0 5 6 8 13 3 8 -1 14 -8 14 -7 0 -11
-6 -8 -14z"/>
<path d="M2170 3670 c0 -5 7 -7 15 -4 8 4 15 8 15 10 0 2 -7 4 -15 4 -8 0 -15
-4 -15 -10z"/>
<path d="M3986 3672 c13 -8 15 -45 2 -53 -4 -3 4 -16 18 -30 22 -19 26 -20 21
-6 -4 10 -7 36 -7 58 0 34 -3 39 -22 39 -13 0 -18 -3 -12 -8z"/>
<path d="M4073 3653 c-3 -10 -8 -22 -10 -28 -3 -5 3 -1 11 9 16 20 21 36 11
36 -3 0 -8 -8 -12 -17z"/>
<path d="M2136 3648 c3 -4 9 -8 15 -8 5 0 9 4 9 8 0 5 -7 9 -15 9 -8 0 -12 -4
-9 -9z"/>
<path d="M2045 3634 l-30 -14 38 6 c33 6 37 4 30 -12 -6 -18 -6 -18 10 -2 37
36 9 49 -48 22z"/>
<path d="M2230 3639 c0 -5 5 -7 10 -4 6 3 10 8 10 11 0 2 -4 4 -10 4 -5 0 -10
-5 -10 -11z"/>
<path d="M2124 3609 c3 -17 6 -37 6 -44 0 -16 56 -7 71 11 9 11 8 14 -7 14
-22 0 -8 16 21 23 11 3 1 5 -22 6 -23 0 -45 6 -48 11 -14 22 -27 9 -21 -21z
m36 -14 c-7 -9 -15 -13 -19 -10 -3 3 1 10 9 15 21 14 24 12 10 -5z"/>
<path d="M2527 3624 c-12 -13 -8 -26 7 -21 10 4 13 -3 12 -26 -2 -18 -7 -31
-13 -30 -6 1 -9 -6 -5 -19 3 -14 -1 -26 -13 -34 -17 -13 -17 -14 6 -23 17 -7
19 -10 7 -10 -19 -1 -25 -31 -7 -31 7 0 9 -11 5 -30 -5 -27 -4 -29 13 -21 19
11 47 41 37 41 -3 0 -1 12 4 26 7 19 7 23 -2 18 -8 -5 -9 -2 -5 10 6 14 3 16
-13 11 -11 -4 -20 -2 -20 4 0 6 5 11 11 11 6 0 8 7 5 16 -4 9 -1 23 5 30 18
22 29 16 19 -11 -9 -23 3 -45 17 -31 3 3 12 1 19 -5 9 -8 11 -5 7 10 -3 12 -9
21 -14 21 -5 0 -9 4 -9 10 0 6 9 6 26 0 34 -13 39 -13 24 5 -7 8 -16 13 -20
10 -5 -3 -11 -1 -15 5 -3 5 3 10 14 10 12 0 21 5 21 11 0 6 -7 9 -15 5 -8 -3
-15 -2 -15 2 0 5 -17 14 -37 22 -21 8 -41 16 -44 18 -3 1 -8 -1 -12 -4z"/>
<path d="M3020 3619 c0 -5 5 -7 10 -4 6 3 10 8 10 11 0 2 -4 4 -10 4 -5 0 -10
-5 -10 -11z"/>
<path d="M2025 3600 c-3 -5 -1 -10 4 -10 6 0 11 5 11 10 0 6 -2 10 -4 10 -3 0
-8 -4 -11 -10z"/>
<path d="M2210 3551 c5 -11 15 -21 21 -23 7 -2 7 -11 -2 -30 -22 -50 -58 -44
-59 10 0 12 -6 22 -13 22 -17 0 -41 -48 -38 -77 2 -17 -2 -21 -22 -19 -13 2
-29 6 -35 9 -6 5 -8 -1 -4 -15 3 -14 1 -19 -6 -14 -7 4 -10 2 -7 -6 3 -7 14
-19 26 -26 25 -16 45 -6 28 14 -6 8 -9 17 -5 21 3 3 6 0 6 -7 0 -11 3 -11 12
-2 8 8 15 8 23 2 18 -15 45 -2 38 18 -4 9 -2 14 2 9 5 -4 19 0 31 8 13 8 30
12 38 9 9 -3 16 -1 16 5 0 6 9 11 20 11 19 0 20 1 4 25 -9 14 -20 22 -25 19
-5 -3 -9 4 -9 16 0 12 -4 19 -9 16 -5 -3 -11 1 -15 9 -3 8 -10 15 -16 15 -7 0
-8 -6 0 -19z m60 -61 c0 -5 -5 -10 -11 -10 -5 0 -7 5 -4 10 3 6 8 10 11 10 2
0 4 -4 4 -10z"/>
<path d="M2366 3524 c-21 -20 -20 -21 7 -19 12 1 23 9 25 18 4 21 -12 22 -32
1z"/>
<path d="M2415 3530 c-3 -5 -1 -10 4 -10 6 0 11 5 11 10 0 6 -2 10 -4 10 -3 0
-8 -4 -11 -10z"/>
<path d="M2190 3500 c0 -5 5 -10 10 -10 6 0 10 5 10 10 0 6 -4 10 -10 10 -5 0
-10 -4 -10 -10z"/>
<path d="M2360 3436 c0 -8 -6 -17 -12 -20 -10 -5 -10 -7 0 -12 6 -3 10 -10 6
-15 -3 -5 -1 -9 4 -9 6 0 13 7 16 16 9 24 7 54 -4 54 -5 0 -10 -6 -10 -14z"/>
<path d="M2255 3430 c-18 -7 -55 -44 -55 -54 0 -2 20 -3 45 -2 43 1 59 16 34
31 -6 4 -8 13 -5 21 3 8 4 14 3 13 -1 0 -11 -4 -22 -9z"/>
<path d="M2866 3422 c-9 -14 19 -33 38 -26 10 4 16 1 17 -7 0 -8 4 -5 8 6 10
25 -16 45 -30 24 -8 -12 -10 -12 -18 0 -5 8 -11 9 -15 3z"/>
<path d="M2010 3400 c-12 -8 -10 -10 8 -10 13 0 20 4 17 10 -7 12 -6 12 -25 0z"/>
<path d="M2385 3390 c4 -6 11 -8 16 -5 14 9 11 15 -7 15 -8 0 -12 -5 -9 -10z"/>
<path d="M2841 3367 c2 -1 13 -9 24 -17 19 -14 19 -14 6 3 -7 9 -18 17 -24 17
-6 0 -8 -1 -6 -3z"/>
<path d="M2142 3349 c10 -5 15 -16 12 -24 -4 -9 0 -15 10 -15 9 0 16 6 16 13
0 18 -21 37 -39 37 -13 -1 -13 -2 1 -11z"/>
<path d="M2265 3350 c3 -6 -1 -7 -9 -4 -9 3 -23 -1 -31 -10 -15 -15 -15 -17 0
-22 10 -4 15 -14 12 -25 -3 -10 -1 -19 3 -21 5 -2 10 -16 12 -33 4 -42 78 -89
78 -50 0 9 -6 12 -15 9 -17 -7 -20 11 -4 22 18 11 4 113 -18 130 -21 16 -37
18 -28 4z m20 -60 c3 -5 1 -10 -4 -10 -6 0 -11 5 -11 10 0 6 2 10 4 10 3 0 8
-4 11 -10z"/>
<path d="M2355 3309 c0 -20 2 -36 5 -34 4 2 5 -24 3 -58 -4 -56 -3 -60 11 -44
8 11 17 14 20 8 4 -5 2 -12 -2 -15 -12 -7 10 -76 23 -76 6 0 16 5 23 12 9 9
12 8 12 -5 0 -9 -5 -16 -12 -14 -14 2 -22 -27 -14 -50 6 -14 8 -14 20 3 8 10
12 22 9 27 -2 4 1 6 9 5 7 -2 12 5 12 14 -1 10 2 16 6 13 5 -3 11 3 14 12 3
10 3 -1 0 -25 -5 -36 -3 -41 10 -36 11 4 16 1 16 -10 0 -10 -9 -16 -22 -16
-22 -1 -22 -1 -4 -12 15 -9 22 -7 33 8 8 10 19 18 24 17 5 -2 9 12 9 31 0 18
7 39 15 46 8 7 15 9 15 4 1 -5 10 2 20 15 24 28 26 21 5 -19 -9 -17 -12 -30
-8 -30 4 0 2 -5 -4 -11 -6 -6 -8 -19 -6 -30 4 -13 13 -18 33 -15 41 5 52 15
45 43 -5 21 -2 24 17 23 36 -3 48 -1 48 10 0 5 13 28 29 52 33 48 31 63 -7 73
l-27 7 24 12 c16 9 20 16 12 20 -7 4 -19 2 -28 -5 -21 -18 -83 -19 -90 -2 -3
7 -13 13 -22 13 -26 0 -71 24 -71 38 0 20 -21 14 -27 -8 -3 -11 -8 -20 -12
-21 -3 0 -29 -2 -57 -4 -52 -3 -52 -4 -56 44 -3 23 -18 17 -19 -7 0 -14 -2
-14 -6 -2 -15 37 -28 37 -28 -1z m132 -53 c-3 -7 0 -19 6 -25 8 -8 5 -11 -10
-11 -12 0 -23 -6 -26 -12 -2 -7 -7 -11 -10 -8 -4 3 0 18 7 32 8 15 12 29 8 32
-3 3 3 6 12 6 11 0 16 -5 13 -14z m-10 -78 c-3 -8 -6 -5 -6 6 -1 11 2 17 5 13
3 -3 4 -12 1 -19z m47 -13 c-4 -8 -10 -13 -15 -10 -4 3 -6 12 -3 20 4 8 10 13
15 10 4 -3 6 -12 3 -20z m-64 5 c0 -5 -5 -10 -11 -10 -5 0 -7 5 -4 10 3 6 8
10 11 10 2 0 4 -4 4 -10z m270 -40 c0 -5 -4 -10 -10 -10 -5 0 -10 5 -10 10 0
6 5 10 10 10 6 0 10 -4 10 -10z m-250 -10 c0 -5 -5 -10 -11 -10 -5 0 -7 5 -4
10 3 6 8 10 11 10 2 0 4 -4 4 -10z m70 -23 c0 -8 -7 -14 -15 -14 -11 0 -12 4
-4 14 6 7 13 13 15 13 2 0 4 -6 4 -13z"/>
<path d="M1975 3270 c-1 -16 3 -26 9 -23 5 4 7 -1 3 -12 -4 -9 -3 -23 3 -30 6
-7 10 -17 9 -21 -1 -5 3 -20 10 -34 10 -21 11 -22 7 -3 -6 32 20 18 33 -18 5
-16 14 -29 20 -29 5 0 17 -3 27 -7 17 -6 17 -5 1 17 -9 14 -17 33 -17 43 0 13
-5 17 -15 14 -8 -4 -17 -2 -20 3 -4 6 0 10 7 10 9 0 9 3 -2 10 -14 9 -7 14 13
11 5 -1 6 3 2 9 -9 14 -32 13 -38 -2 -2 -7 -4 0 -4 16 0 16 -11 38 -24 52
l-24 24 0 -30z m35 -21 c0 -6 -4 -7 -10 -4 -5 3 -10 11 -10 16 0 6 5 7 10 4 6
-3 10 -11 10 -16z"/>
<path d="M2193 3276 c-4 -8 -19 -16 -33 -18 -17 -2 -26 -10 -28 -25 -2 -13 0
-23 5 -23 15 0 83 69 73 75 -5 3 -12 -1 -17 -9z"/>
<path d="M1480 3240 c-9 -6 -10 -10 -3 -10 6 0 15 5 18 10 8 12 4 12 -15 0z"/>
<path d="M2205 3231 c-3 -5 -2 -12 3 -15 5 -3 9 1 9 9 0 17 -3 19 -12 6z"/>
<path d="M1870 3187 c-35 -16 -36 -17 -20 -27 20 -13 33 -12 25 0 -3 6 -1 10
4 10 6 0 11 -7 11 -15 0 -8 5 -15 10 -15 6 0 10 14 10 30 0 33 -3 34 -40 17z"/>
<path d="M1336 3177 c3 -10 9 -15 12 -12 3 3 0 11 -7 18 -10 9 -11 8 -5 -6z"/>
<path d="M1450 3165 c0 -8 2 -15 4 -15 2 0 6 7 10 15 3 8 1 15 -4 15 -6 0 -10
-7 -10 -15z"/>
<path d="M2215 3170 c-4 -6 -13 -9 -21 -6 -8 3 -14 1 -14 -4 0 -6 12 -10 26
-10 21 0 25 -4 21 -20 -5 -18 3 -25 26 -21 8 1 10 -43 1 -51 -10 -10 -44 4
-44 19 0 8 -5 11 -12 7 -8 -5 -9 -2 -5 9 7 18 -1 22 -19 9 -11 -8 -14 -53 -2
-46 4 2 11 -4 17 -13 9 -16 12 -16 22 -3 9 13 10 13 6 -1 -3 -9 -1 -21 4 -26
6 -6 11 -24 11 -40 1 -25 5 -29 20 -25 10 2 21 9 25 16 3 6 3 8 -2 4 -4 -4
-14 0 -21 10 -18 23 -17 30 2 34 22 4 29 76 10 98 -8 8 -16 26 -18 39 -3 27
-22 38 -33 21z"/>
<path d="M1825 3139 c-10 -15 3 -25 16 -12 7 7 7 13 1 17 -6 3 -14 1 -17 -5z"/>
<path d="M2309 3142 c11 -8 11 -16 1 -46 -13 -39 -7 -57 11 -39 6 6 17 9 24 7
7 -3 16 0 20 6 8 13 -13 70 -25 70 -5 0 -17 3 -27 6 -14 4 -15 3 -4 -4z"/>
<path d="M1330 3089 c-12 -23 -18 -44 -14 -47 4 -4 9 -1 11 6 3 6 11 12 20 12
8 0 13 6 10 13 -2 6 0 22 4 35 15 38 -9 24 -31 -19z"/>
<path d="M1840 3089 c0 -17 4 -28 10 -24 6 3 10 17 10 31 0 13 -4 24 -10 24
-5 0 -10 -14 -10 -31z"/>
<path d="M1767 3099 c7 -7 15 -10 18 -7 3 3 -2 9 -12 12 -14 6 -15 5 -6 -5z"/>
<path d="M1267 3080 c3 -11 7 -20 9 -20 2 0 4 9 4 20 0 11 -4 20 -9 20 -5 0
-7 -9 -4 -20z"/>
<path d="M1371 3084 c0 -11 3 -14 6 -6 3 7 2 16 -1 19 -3 4 -6 -2 -5 -13z"/>
<path d="M2136 3077 c3 -10 9 -15 12 -12 3 3 0 11 -7 18 -10 9 -11 8 -5 -6z"/>
<path d="M1734 3068 c-5 -8 -2 -9 10 -5 14 6 16 3 10 -16 -6 -21 -6 -21 13 -4
11 9 26 17 33 17 24 0 1 13 -29 16 -17 2 -33 -1 -37 -8z"/>
<path d="M2085 3050 c-3 -5 1 -10 10 -10 9 0 13 5 10 10 -3 6 -8 10 -10 10 -2
0 -7 -4 -10 -10z"/>
<path d="M2311 3023 c0 -6 -4 -20 -7 -30 -5 -14 -4 -15 5 -7 7 7 11 20 8 30
-3 11 -5 14 -6 7z"/>
<path d="M1800 3006 c0 -14 29 -30 38 -21 3 3 0 5 -7 5 -8 0 -11 7 -7 15 3 9
0 15 -9 15 -8 0 -15 -6 -15 -14z"/>
<path d="M1897 2983 c-12 -12 -7 -33 8 -33 17 0 19 9 7 28 -5 7 -11 9 -15 5z"/>
<path d="M1855 2970 c3 -5 11 -10 16 -10 6 0 7 5 4 10 -3 6 -11 10 -16 10 -6
0 -7 -4 -4 -10z"/>
<path d="M1765 2950 c3 -5 8 -10 11 -10 2 0 4 5 4 10 0 6 -5 10 -11 10 -5 0
-7 -4 -4 -10z"/>
<path d="M1800 2951 c0 -17 55 -41 78 -34 15 4 22 1 22 -9 0 -8 7 -15 15 -15
38 0 -13 46 -57 52 -13 1 -31 6 -40 10 -11 4 -18 3 -18 -4z"/>
<path d="M1980 2948 c0 -4 11 -7 24 -6 14 1 23 6 20 9 -6 10 -44 7 -44 -3z"/>
<path d="M1204 2931 c4 -5 1 -11 -6 -13 -8 -3 -6 -7 5 -11 12 -5 17 -1 17 13
0 11 -5 20 -11 20 -5 0 -8 -4 -5 -9z"/>
<path d="M1627 2900 c3 -11 9 -22 13 -25 5 -3 6 4 3 15 -3 11 -9 22 -13 25 -5
3 -6 -4 -3 -15z"/>
<path d="M1490 2900 c0 -5 5 -10 10 -10 6 0 10 5 10 10 0 6 -4 10 -10 10 -5 0
-10 -4 -10 -10z"/>
<path d="M2535 2900 c-3 -5 1 -10 10 -10 9 0 13 5 10 10 -3 6 -8 10 -10 10 -2
0 -7 -4 -10 -10z"/>
<path d="M1800 2874 c0 -14 4 -23 10 -19 6 3 17 -1 26 -9 8 -9 23 -16 32 -17
10 -1 7 -4 -8 -8 -14 -4 -31 -3 -38 2 -10 8 -12 3 -10 -20 1 -21 6 -29 15 -26
7 3 13 -2 13 -11 0 -18 5 -20 28 -7 12 7 17 20 16 48 -1 21 2 44 8 50 7 9 5
14 -8 19 -11 3 -29 10 -42 15 -35 14 -42 11 -42 -17z"/>
<path d="M1189 2878 c-2 -6 -4 -68 -2 -68 1 0 8 13 16 29 13 26 13 29 -1 24
-10 -4 -13 -2 -8 5 4 7 5 12 2 12 -3 0 -6 -1 -7 -2z"/>
<path d="M1584 2805 c3 -8 1 -15 -4 -15 -18 0 -10 -39 13 -60 12 -12 22 -26
22 -33 0 -6 8 -13 17 -15 11 -2 16 3 16 15 -1 10 2 28 6 40 5 16 2 25 -13 32
-27 15 -34 14 -28 -4 8 -19 -5 -26 -23 -14 -8 5 -10 9 -4 9 6 0 11 14 12 30 0
17 -4 30 -10 30 -5 0 -8 -7 -4 -15z"/>
<path d="M1961 2794 c0 -11 3 -14 6 -6 3 7 2 16 -1 19 -3 4 -6 -2 -5 -13z"/>
<path d="M1916 2755 c-9 -14 -21 -23 -26 -20 -5 3 -11 1 -15 -5 -3 -5 -1 -10
5 -10 7 0 10 -7 6 -15 -3 -9 0 -15 9 -15 8 0 15 -5 15 -11 0 -5 -4 -7 -10 -4
-5 3 -10 -1 -10 -10 0 -10 7 -15 18 -13 10 2 16 -2 14 -10 -1 -8 2 -11 8 -7 6
4 18 1 27 -7 14 -11 15 -10 9 8 -3 12 0 28 9 40 20 27 18 36 -7 29 -16 -6 -20
-4 -15 9 3 8 2 18 -4 22 -5 3 -7 14 -4 25 9 27 -10 23 -29 -6z"/>
<path d="M2550 2770 c-9 -6 -10 -10 -3 -10 6 0 15 5 18 10 8 12 4 12 -15 0z"/>
<path d="M1697 2669 c7 -9 10 -19 6 -22 -3 -4 -1 -7 5 -7 17 0 15 16 -5 31
-16 12 -17 12 -6 -2z"/>
<path d="M2380 2616 c0 -9 5 -16 10 -16 6 0 10 4 10 9 0 6 -4 13 -10 16 -5 3
-10 -1 -10 -9z"/>
<path d="M1940 2600 c0 -5 5 -10 10 -10 6 0 8 -11 4 -26 -6 -23 -4 -25 21 -22
18 2 31 11 37 27 7 21 6 23 -17 17 -18 -5 -27 -2 -31 9 -7 17 -24 21 -24 5z
m45 -40 c-3 -5 -12 -10 -18 -10 -7 0 -6 4 3 10 19 12 23 12 15 0z"/>
<path d="M2041 2588 c-16 -17 -18 -24 -9 -35 10 -12 13 -11 21 4 6 10 16 22
24 26 14 8 9 27 -7 27 -5 0 -18 -10 -29 -22z"/>
<path d="M2120 2380 c0 -5 5 -10 10 -10 6 0 10 5 10 10 0 6 -4 10 -10 10 -5 0
-10 -4 -10 -10z"/>
<path d="M1310 2140 c0 -19 30 -70 41 -70 6 0 8 7 5 16 -3 9 -9 27 -12 40 -6
23 -34 35 -34 14z"/>
<path d="M1900 1411 c0 -11 31 -24 39 -16 3 3 -1 10 -9 15 -19 12 -30 12 -30
1z"/>
<path d="M1900 1372 c0 -12 19 -26 26 -19 2 2 -2 10 -11 17 -9 8 -15 8 -15 2z"/>
<path d="M2970 2839 c0 -5 5 -7 10 -4 6 3 10 8 10 11 0 2 -4 4 -10 4 -5 0 -10
-5 -10 -11z"/>
<path d="M3345 2609 c-4 -6 -5 -12 -2 -15 2 -3 7 2 10 11 7 17 1 20 -8 4z"/>
<path d="M3215 2590 c-3 -6 1 -7 9 -4 18 7 21 14 7 14 -6 0 -13 -4 -16 -10z"/>
</g>
</svg>
